<svg width="28" height="19" viewBox="0 0 28 19" fill="none" xmlns="http://www.w3.org/2000/svg">
<path fill-rule="evenodd" clip-rule="evenodd" d="M15.9872 1.07118C15.173 0.999956 14.1312 1 12.6538 1H8.4848C7.00678 1 5.96524 0.999956 5.15199 1.07118C4.35111 1.14208 3.86855 1.27459 3.4927 1.48028C2.71967 1.90433 2.09109 2.5813 1.69761 3.41241C1.50582 3.81615 1.3827 4.33609 1.31743 5.19716C1.25062 6.07221 1.25 7.19422 1.25 8.78388V10.4661C1.25 12.0551 1.25062 13.1771 1.31743 14.0521C1.3827 14.9132 1.50582 15.4338 1.69761 15.8369C2.09109 16.6687 2.71967 17.345 3.4927 17.769C3.86855 17.9747 4.35111 18.1072 5.15199 18.1781C5.96524 18.25 7.00678 18.25 8.4848 18.25H12.6538C14.1312 18.25 15.173 18.25 15.9872 18.1781C16.7874 18.1072 17.2697 17.9747 17.6459 17.769C20.6894 16.0978 19.513 10.6285 22.6352 12.8642L26.0354 15.305C26.3404 15.5243 26.75 15.287 26.75 14.8929V4.3564C26.75 3.96231 26.3404 3.72495 26.0354 3.94496L22.6352 6.38506C19.5041 8.62844 20.6684 3.14018 17.6459 1.48028C17.2697 1.27459 16.7874 1.14208 15.9872 1.07118V1.07118Z" stroke="black" stroke-miterlimit="22.9256" stroke-linecap="round" stroke-linejoin="round"/>
</svg>
