<svg width="26" height="21" viewBox="0 0 26 21" fill="none" xmlns="http://www.w3.org/2000/svg">
<path d="M13.0002 10.4574C14.7998 10.4574 16.4347 11.1625 17.6458 12.3113M13.0002 5.60292C16.348 5.60292 19.3639 7.02423 21.4819 9.29746M25 6.7098C22.0773 3.36361 17.7851 1.25 13.0002 1.25M13.0002 10.4574C11.2001 10.4574 9.56526 11.1625 8.35422 12.3113M13.0002 5.60292C9.65201 5.60292 6.63655 7.02423 4.51811 9.29746M1 6.7098C3.92274 3.36361 8.21492 1.25 13.0002 1.25M13.0002 14.4756C14.5217 14.4756 15.755 15.7121 15.755 17.2376C15.755 18.7634 14.5217 20 13.0002 20C11.4783 20 10.245 18.7634 10.245 17.2376C10.245 15.7121 11.4783 14.4756 13.0002 14.4756Z" stroke="black" stroke-miterlimit="22.9256" stroke-linecap="round" stroke-linejoin="round"/>
</svg>
