<svg width="24" height="22" viewBox="0 0 24 22" fill="none" xmlns="http://www.w3.org/2000/svg">
<path d="M19.2233 3.64611H23.25M19.2233 6.13744H23.25M19.2233 8.62835H23.25M3.42445 11.5807C4.19794 14.5517 4.28143 17.4609 4.3853 20.3714C5.27813 20.8489 7.12692 20.9028 8.17249 20.3714C8.44173 16.6512 7.86538 13.8139 9.96304 11.5769M7.54032 0.612884L17.6523 2.21337V10.2246L7.54032 12.0029C2.51163 12.8875 0.75 9.1858 0.75 6.30812C0.75 3.17568 2.65826 -0.159823 7.54032 0.612884ZM5.97747 3.97621C7.14972 3.97621 8.10081 4.95156 8.10081 6.15434C8.10081 7.35712 7.14972 8.33246 5.97747 8.33246C4.80441 8.33246 3.85333 7.35712 3.85333 6.15434C3.85333 4.95156 4.80441 3.97621 5.97747 3.97621Z" stroke="black" stroke-miterlimit="22.9256" stroke-linecap="round" stroke-linejoin="round"/>
</svg>
