<svg width="22" height="22" viewBox="0 0 22 22" fill="none" xmlns="http://www.w3.org/2000/svg">
<path fill-rule="evenodd" clip-rule="evenodd" d="M21.5 0.5H1.25V21.5H21.5V0.5ZM6.75603 3.74182C5.31762 3.74182 4.14035 4.96229 4.14035 6.45397C4.14035 7.94565 5.31722 9.16654 6.75562 9.16654C8.19403 9.16654 9.37132 7.94607 9.37132 6.45439C9.37132 4.96271 8.19443 3.74182 6.75603 3.74182ZM15.6382 3.74182C14.0034 3.74182 12.6658 5.1285 12.6658 6.82381C12.6658 8.51911 14.003 9.90622 15.6378 9.90622C17.2725 9.90622 18.6101 8.51954 18.6101 6.82423C18.6101 5.12893 17.2729 3.74182 15.6382 3.74182ZM7.63981 11C5.71524 11 4.14035 12.6328 4.14035 14.6287C4.14035 16.6245 5.71484 18.2578 7.63941 18.2578C9.56398 18.2578 11.1389 16.6249 11.1389 14.6291C11.1389 12.6332 9.56438 11 7.63981 11ZM16.0018 12.8479C14.567 12.8479 13.3935 14.065 13.3935 15.5528C13.3935 17.0407 14.567 18.2578 16.0018 18.2578C17.4365 18.2578 18.6101 17.0407 18.6101 15.5528C18.6101 14.065 17.4365 12.8479 16.0018 12.8479Z" stroke="black" stroke-miterlimit="22.9256" stroke-linecap="round" stroke-linejoin="round"/>
</svg>
