<svg width="23" height="22" viewBox="0 0 23 22" fill="none" xmlns="http://www.w3.org/2000/svg">
<path d="M3.78037 11.3742C0.948972 10.9843 -1.30845 3.8616 3.76824 3.85784C4.72715 3.85701 6.88177 3.86619 6.77167 1.25M11.4023 7.65816C15.41 9.2914 19.0837 13.1906 22.5 18.8375C16.5049 18.8375 10.5098 18.8375 4.51505 18.8375C2.38189 18.8396 1.63264 17.5014 2.45272 14.6415C3.34808 12.4727 4.18515 10.294 5.15459 8.13816C6.28594 5.62339 9.58769 6.9198 11.4023 7.65816V7.65816ZM13.0627 12.3271C11.9844 11.3963 10.8376 10.6391 9.63059 10.1475C9.16551 9.95797 7.98559 9.48089 7.2323 9.37822C6.81053 10.352 6.40737 11.3383 6.00786 12.3271C8.3592 12.3266 10.7109 12.3266 13.0627 12.3271ZM6.41831 18.8375H22.5V21.5H6.41831V18.8375Z" stroke="black" stroke-miterlimit="22.9256" stroke-linecap="round" stroke-linejoin="round"/>
</svg>
