<svg width="27" height="22" viewBox="0 0 27 22" fill="none" xmlns="http://www.w3.org/2000/svg">
<path d="M5.38876 15.8292V20.75M9.38167 15.8292V20.75M13.3746 15.8292V20.75M17.3675 15.8292V20.75M21.3617 15.8292V20.75M25.75 11.5228V3.13899C25.75 2.09975 24.9333 1.25 23.9345 1.25H2.81557C1.81673 1.25 1 2.09975 1 3.13899V11.5228M25.75 11.5228C25.75 12.562 24.9333 13.4118 23.9345 13.4118H2.81557C1.81673 13.4118 1 12.562 1 11.5228M25.75 11.5228V9.55673H0.999999L1 11.5228M25.75 11.5228H1M3.07411 3.13899C4.45058 3.13899 5.22232 3.13899 6.59879 3.13899" stroke="black" stroke-miterlimit="22.9256" stroke-linecap="round" stroke-linejoin="round"/>
</svg>
