<svg width="166" height="70" viewBox="0 0 166 70" fill="none" xmlns="http://www.w3.org/2000/svg">
<path fill-rule="evenodd" clip-rule="evenodd" d="M154.025 8.14344H157.56V5.30628C157.56 4.33994 156.765 3.54629 155.792 3.54629C154.82 3.54629 154.025 4.33811 154.025 5.30628V8.14344ZM157.561 8.14344V11.645H160.431C161.398 11.645 162.19 10.8575 162.19 9.89423C162.19 8.93096 161.399 8.14344 160.431 8.14344H157.561V8.14344ZM157.561 15.1527V38.0441H163.792V41.5874H157.561V45.1306H167.334V48.6738H154.017V15.1527H151.153C149.713 15.1527 148.4 14.5618 147.445 13.6108C146.484 12.6542 145.887 11.3376 145.887 9.89423C145.887 8.45024 146.483 7.13423 147.445 6.1777C148.266 5.35956 149.352 4.80841 150.556 4.67002C150.703 3.47587 151.258 2.39931 152.077 1.58362C153.034 0.630751 154.35 0.0385803 155.792 0.0385803C157.234 0.0385803 158.55 0.631364 159.507 1.58362C160.326 2.39931 160.881 3.47649 161.029 4.67002C162.232 4.80841 163.318 5.35956 164.139 6.1777C165.101 7.13423 165.697 8.45024 165.697 9.89423C165.697 11.3376 165.1 12.6542 164.139 13.6108C163.184 14.5618 161.871 15.1527 160.431 15.1527H157.561V15.1527ZM154.017 11.645V8.14344H151.153C150.186 8.14344 149.395 8.93096 149.395 9.89423C149.395 10.8575 150.186 11.645 151.153 11.645H154.017V11.645ZM57.4578 45.1306H43.9322V36.7716H57.4419V33.2284H43.9322V24.87H57.4578V21.3268H40.3883L40.3889 24.87H40.3883C40.3889 31.6252 40.3883 38.3754 40.3889 45.1306H40.3883L40.3889 48.6738H57.4578V45.1306V45.1306ZM16.5698 21.3268H13.0266V48.6738H16.5698V27.4585L31.2847 48.6738H34.8279V21.3268H31.2847V42.1796L16.5698 21.3268ZM104.163 22.5656L76.8158 49.9127L74.3375 47.435L86.7725 35.0012L74.3375 22.5656L76.8158 20.0879L89.2502 32.5235L101.685 20.0879L104.163 22.5656ZM35.0012 3.50894C30.7519 3.50894 26.6937 4.36137 22.9955 5.89906C19.1485 7.4986 15.6751 9.84892 12.762 12.7626C9.8483 15.6757 7.4986 19.1498 5.89906 22.9955C4.35953 26.6931 3.50955 30.7501 3.50955 34.9988C3.50955 39.2481 4.36137 43.3057 5.89906 47.0045C7.49921 50.8521 9.84891 54.3255 12.762 57.2386C15.6745 60.1511 19.1479 62.5008 22.9955 64.1009C26.6937 65.6386 30.7507 66.4911 34.9988 66.4911C39.2499 66.4911 43.3063 65.6392 47.0045 64.1009C50.8521 62.5008 54.3261 60.1511 57.2386 57.2386C60.1517 54.3249 62.5014 50.8515 64.1015 47.0057C65.6386 43.3069 66.4904 39.2499 66.4904 35.0024C66.4904 30.7507 65.6392 26.6943 64.1015 22.9961C62.5014 19.1498 60.1517 15.6757 57.2386 12.7626C54.3249 9.84892 50.8515 7.4986 47.0051 5.89906C43.3069 4.36137 39.2499 3.50894 35.0012 3.50894V3.50894ZM21.6526 2.66447C25.7769 0.949803 30.2883 0 35.0012 0C39.7135 0 44.2237 0.949803 48.3481 2.66447C52.6317 4.4465 56.4909 7.05524 59.7181 10.2825C62.946 13.5103 65.5541 17.3702 67.3355 21.6538C69.0508 25.7782 70 30.2896 70 35.0024C70 39.7135 69.0502 44.2237 67.3355 48.3481C65.5535 52.6304 62.946 56.4909 59.7181 59.7181C56.4909 62.9454 52.6317 65.5535 48.3474 67.3355C44.2231 69.0508 39.7117 70 34.9988 70C30.2877 70 25.7769 69.0502 21.6526 67.3355C17.3683 65.5535 13.5091 62.9454 10.2819 59.7181C7.05401 56.4909 4.4471 52.6317 2.66508 48.3474C0.9498 44.2225 0 39.711 0 34.9988C0 30.2877 0.949187 25.7763 2.66508 21.6526C4.4471 17.3702 7.05401 13.5103 10.2819 10.2825C13.5091 7.05524 17.369 4.4465 21.6526 2.66447V2.66447ZM145.387 28.8413C145.072 27.5571 144.623 26.5963 143.968 25.9306C143.322 25.2736 142.406 24.8382 141.141 24.584C140.821 24.5277 140.503 24.4854 140.194 24.4683C138.791 24.3887 137.246 24.6783 135.991 25.3391C134.89 25.919 134.037 26.7892 133.809 27.9301C133.776 28.0685 133.755 28.2271 133.746 28.3998C133.576 31.3845 137.51 32.3233 140.319 32.9914L140.878 33.1329C141.96 33.395 143.039 33.7036 144.072 34.1543C145.175 34.6338 146.218 35.2676 147.137 36.1562L147.145 36.1629C147.303 36.3172 147.465 36.4924 147.625 36.6853C148.879 38.1893 149.264 40.0019 149.014 41.7582C148.776 43.4178 147.957 45.0302 146.778 46.2519L146.772 46.2592C146.582 46.4546 146.369 46.6536 146.13 46.8514C144.399 48.2917 141.972 49.018 139.56 49.0413C137.135 49.0652 134.662 48.3799 132.88 47.0033C132.02 46.3401 131.297 45.5281 130.72 44.5691C130.22 43.7393 129.823 42.7889 129.535 41.7197L132.909 40.8158C133.108 41.5488 133.379 42.1979 133.719 42.7619C134.076 43.3547 134.51 43.8477 135.016 44.2378C136.166 45.1251 137.843 45.5666 139.533 45.5501C141.188 45.5348 142.807 45.0755 143.897 44.168C144.01 44.0749 144.135 43.9561 144.266 43.8213C144.948 43.1122 145.42 42.1967 145.549 41.272C145.668 40.4312 145.5 39.588 144.943 38.918L144.706 38.6688C144.118 38.1017 143.423 37.6834 142.676 37.3589C141.855 37.0019 140.963 36.7471 140.063 36.5285L139.513 36.3944C135.516 35.4501 129.916 34.1145 130.255 28.2075C130.272 27.8897 130.315 27.5688 130.379 27.2479C130.831 24.949 132.384 23.2882 134.361 22.2453C136.184 21.2857 138.396 20.8632 140.386 20.9765C140.899 21.0053 141.381 21.0665 141.824 21.1541C143.806 21.5595 145.309 22.309 146.46 23.4793C147.571 24.6079 148.295 26.0703 148.761 27.9368L145.387 28.8413V28.8413ZM122.244 28.8413C121.929 27.5571 121.48 26.5963 120.825 25.9306C120.178 25.2736 119.263 24.8382 117.998 24.584C117.678 24.5277 117.36 24.4854 117.051 24.4683C115.648 24.3887 114.103 24.6783 112.848 25.3391C111.747 25.919 110.894 26.7892 110.666 27.9301C110.632 28.0685 110.612 28.2271 110.603 28.3998C110.432 31.3845 114.367 32.3233 117.176 32.9914L117.734 33.1329C118.816 33.395 119.896 33.7036 120.929 34.1543C122.032 34.6338 123.075 35.2676 123.994 36.1562L124.001 36.1629C124.16 36.3172 124.321 36.4924 124.482 36.6853C125.736 38.1893 126.121 40.0019 125.871 41.7582C125.633 43.4178 124.814 45.0302 123.635 46.2519L123.628 46.2592C123.439 46.4546 123.225 46.6536 122.986 46.8514C121.256 48.2917 118.829 49.018 116.417 49.0413C113.991 49.0652 111.519 48.3799 109.736 47.0033C108.877 46.3401 108.154 45.5281 107.577 44.5691C107.077 43.7393 106.68 42.7889 106.392 41.7197L109.766 40.8158C109.964 41.5488 110.236 42.1979 110.576 42.7619C110.933 43.3547 111.367 43.8477 111.873 44.2378C113.023 45.1251 114.699 45.5666 116.389 45.5501C118.044 45.5348 119.663 45.0755 120.754 44.168C120.867 44.0749 120.992 43.9561 121.122 43.8213C121.805 43.1122 122.276 42.1967 122.406 41.272C122.524 40.4312 122.357 39.588 121.799 38.918L121.563 38.6688C120.975 38.1017 120.279 37.6834 119.533 37.3589C118.712 37.0019 117.82 36.7471 116.92 36.5285L116.369 36.3944C112.372 35.4501 106.773 34.1145 107.111 28.2075C107.129 27.8897 107.171 27.5688 107.236 27.2479C107.688 24.949 109.24 23.2882 111.217 22.2453C113.041 21.2857 115.253 20.8632 117.243 20.9765C117.755 21.0053 118.237 21.0665 118.681 21.1541C120.663 21.5595 122.166 22.309 123.317 23.4793C124.428 24.6079 125.152 26.0703 125.618 27.9368L122.244 28.8413V28.8413Z" fill="white"/>
</svg>
