<svg width="446" height="191" viewBox="0 0 446 191" fill="none" xmlns="http://www.w3.org/2000/svg">
<path fill-rule="evenodd" clip-rule="evenodd" d="M412.78 28.5231H421.603V21.448C421.603 19.0387 419.619 17.0589 417.192 17.0589C414.766 17.0589 412.78 19.0338 412.78 21.448V28.5231ZM48.9773 61.4007H40.1331V129.599H48.9773V76.6924L85.7044 129.599H94.5479V61.4007H85.7044V113.404L48.9773 61.4007ZM108.427 61.4007V70.2372C108.428 87.0824 108.427 103.917 108.427 120.762L108.429 129.599H151.033V120.762H117.273V99.9174H150.993V91.081H117.273V70.2372H151.033V61.4007H108.427ZM95.583 9.13451C71.7128 9.13451 50.1021 18.8014 34.4599 34.43C18.8177 50.0586 9.14246 71.6505 9.14246 95.5C9.14246 119.349 18.8177 140.941 34.4599 156.57C50.1021 172.199 71.7128 181.865 95.583 181.865C119.453 181.865 141.064 172.199 156.706 156.57C172.348 140.941 182.024 119.349 182.024 95.5C182.024 71.6505 172.348 50.0586 156.706 34.43C141.064 18.8014 119.453 9.13451 95.583 9.13451ZM27.996 27.9716C45.293 10.6896 69.1898 0 95.583 0C121.977 0 145.873 10.6896 163.17 27.9716C180.467 45.2537 191.166 69.1288 191.166 95.5C191.166 121.87 180.467 145.746 163.17 163.028C145.873 180.31 121.977 191 95.583 191C69.1898 191 45.293 180.31 27.996 163.028C10.6989 145.746 0 121.87 0 95.5C0 69.1288 10.6989 45.2537 27.996 27.9716ZM421.605 28.5237V37.2563H428.771C431.183 37.2563 433.16 35.2918 433.16 32.89C433.16 30.4881 431.186 28.5237 428.771 28.5237H421.605ZM421.605 46.0036V103.09H437.16V111.926H421.605V120.762H446V129.599H412.76V129.599H412.76V46.0036H405.612C402.018 46.0036 398.741 44.5296 396.356 42.158C393.958 39.7722 392.468 36.4894 392.468 32.89C392.468 29.2891 393.957 26.0072 396.356 23.6214C398.406 21.5808 401.117 20.206 404.122 19.8614C404.488 16.8835 405.874 14.1987 407.919 12.1636C410.308 9.78799 413.591 8.31151 417.192 8.31151C420.791 8.31151 424.075 9.78892 426.463 12.1642C428.508 14.199 429.894 16.8853 430.261 19.8614C433.265 20.206 435.976 21.5808 438.027 23.6214C440.426 26.0072 441.915 29.2891 441.915 32.89C441.915 36.4894 440.425 39.7722 438.027 42.158C435.642 44.5302 432.364 46.0036 428.771 46.0036H421.605ZM412.76 37.2563V28.5237H405.612C403.198 28.5237 401.223 30.4881 401.223 32.89C401.223 35.2918 403.2 37.2563 405.612 37.2563H412.76ZM282.474 64.4903L214.216 132.688L208.031 126.509L239.067 95.5018L208.031 64.4903L214.216 58.3115L245.252 89.3231L276.29 58.3115L282.474 64.4903ZM389.691 80.1399C388.906 76.9369 387.786 74.5415 386.148 72.881C384.536 71.2433 382.25 70.157 379.094 69.5233C378.294 69.3824 377.5 69.2773 376.729 69.2339C373.228 69.0357 369.371 69.7585 366.238 71.4067C363.491 72.852 361.363 75.0227 360.794 77.8684C360.709 78.213 360.658 78.6076 360.635 79.0391C360.21 86.482 370.031 88.8237 377.042 90.4901L378.437 90.8433C381.136 91.4956 383.829 92.2662 386.409 93.3891C389.162 94.5851 391.766 96.167 394.058 98.383L394.077 98.399C394.474 98.7834 394.877 99.2211 395.278 99.7023C398.407 103.453 399.368 107.973 398.744 112.353C398.151 116.492 396.107 120.512 393.164 123.559L393.147 123.577C392.674 124.064 392.141 124.56 391.545 125.054C387.225 128.646 381.167 130.458 375.148 130.516C369.093 130.575 362.923 128.866 358.473 125.433C356.328 123.779 354.523 121.753 353.083 119.362C351.834 117.293 350.844 114.922 350.125 112.256L358.545 110.003C359.041 111.831 359.72 113.45 360.569 114.856C361.459 116.335 362.543 117.563 363.805 118.536C366.677 120.75 370.86 121.85 375.078 121.809C379.21 121.77 383.251 120.626 385.973 118.363C386.253 118.129 386.566 117.834 386.893 117.497C388.595 115.729 389.772 113.446 390.096 111.141C390.392 109.043 389.974 106.94 388.582 105.27L387.992 104.648C386.523 103.234 384.788 102.191 382.924 101.382C380.876 100.491 378.648 99.8555 376.403 99.3102L375.029 98.9757C365.052 96.6211 351.076 93.2905 351.921 78.5601C351.965 77.767 352.072 76.9659 352.233 76.1666C353.361 70.4339 357.234 66.2914 362.17 63.6913C366.72 61.2978 372.243 60.2445 377.209 60.5275C378.488 60.5978 379.691 60.7507 380.798 60.9698C385.745 61.9812 389.497 63.8504 392.37 66.7682C395.141 69.5828 396.95 73.2299 398.114 77.8844L389.691 80.1399ZM328.839 80.1399C328.054 76.9369 326.934 74.5415 325.297 72.881C323.684 71.2433 321.399 70.157 318.242 69.5233C317.443 69.3824 316.649 69.2773 315.878 69.2339C312.376 69.0357 308.52 69.7585 305.387 71.4067C302.639 72.852 300.51 75.0227 299.942 77.8684C299.857 78.213 299.806 78.6076 299.783 79.0391C299.357 86.482 309.179 88.8237 316.19 90.4901L317.585 90.8433C320.284 91.4956 322.978 92.2662 325.557 93.3891C328.311 94.5851 330.914 96.167 333.206 98.383L333.225 98.399C333.622 98.7834 334.025 99.2211 334.426 99.7023C337.556 103.453 338.516 107.973 337.892 112.353C337.299 116.492 335.255 120.512 332.312 123.559L332.295 123.577C331.822 124.064 331.289 124.56 330.693 125.054C326.374 128.646 320.315 130.458 314.296 130.516C308.241 130.575 302.072 128.866 297.621 125.433C295.476 123.779 293.671 121.753 292.231 119.362C290.982 117.293 289.992 114.922 289.273 112.256L297.694 110.003C298.189 111.831 298.867 113.45 299.717 114.856C300.608 116.335 301.691 117.563 302.953 118.536C305.825 120.75 310.008 121.85 314.227 121.809C318.358 121.77 322.398 120.626 325.121 118.363C325.402 118.129 325.714 117.834 326.041 117.497C327.744 115.729 328.92 113.446 329.244 111.141C329.54 109.043 329.123 106.94 327.73 105.27L327.14 104.648C325.671 103.234 323.936 102.191 322.073 101.382C320.024 100.491 317.796 99.8555 315.551 99.3102L314.177 98.9757C304.2 96.6211 290.224 93.2905 291.069 78.5601C291.112 77.767 291.22 76.9659 291.381 76.1666C292.509 70.4339 296.383 66.2914 301.318 63.6913C305.868 61.2978 311.391 60.2445 316.357 60.5275C317.637 60.5978 318.84 60.7507 319.946 60.9698C324.893 61.9812 328.645 63.8504 331.518 66.7682C334.29 69.5828 336.098 73.2299 337.262 77.8844L328.839 80.1399Z" fill="black"/>
</svg>
