<svg width="19" height="22" viewBox="0 0 19 22" fill="none" xmlns="http://www.w3.org/2000/svg">
<path fill-rule="evenodd" clip-rule="evenodd" d="M6.03908 9.5396L13.0467 4.60057L6.03908 9.5396ZM6.03908 12.4602L13.0467 17.3994L6.03908 12.4602ZM15.1201 0.607178C16.52 0.607178 17.6549 1.74208 17.6549 3.14197C17.6549 4.542 16.52 5.67677 15.1201 5.67677C13.7201 5.67677 12.5853 4.542 12.5853 3.14197C12.5853 1.74208 13.7201 0.607178 15.1201 0.607178ZM15.1201 16.3233C16.52 16.3233 17.6549 17.4582 17.6549 18.8581C17.6549 20.2581 16.52 21.3929 15.1201 21.3929C13.7201 21.3929 12.5853 20.2581 12.5853 18.8581C12.5853 17.4582 13.7201 16.3233 15.1201 16.3233ZM3.96674 8.46517C5.36676 8.46517 6.50154 9.60008 6.50154 11C6.50154 12.3999 5.36676 13.5348 3.96674 13.5348C2.56685 13.5348 1.43195 12.3999 1.43195 11C1.43195 9.60008 2.56685 8.46517 3.96674 8.46517Z" stroke="black" stroke-miterlimit="22.9256"/>
</svg>
